<svg xmlns="http://www.w3.org/2000/svg" width="128" height="128" viewBox="0 0 128 128" preserveAspectRatio="xMidYMid meet">
  <defs>
    <linearGradient id="diagonalGradient" x1="0%" y1="0%" x2="100%" y2="100%">
      <stop offset="0%" stop-color="#2563eb" stop-opacity="1"/>
      <stop offset="100%" stop-color="#1d4ed8" stop-opacity="1"/>
    </linearGradient>
  </defs>
  <g transform="translate(0,128) scale(0.1,-0.1)" fill="url(#diagonalGradient)" stroke="#000000" stroke-width="2">
    <path d="M71 1103 l-30 -28 -2 -425 c-1 -509 -3 -456 21 -480 19 -19 33 -20
      496 -20 512 0 510 0 543 52 6 10 43 123 82 251 86 288 86 292 -41 299 l-45 3
      -5 101 c-3 63 -10 107 -18 117 -30 35 -78 40 -340 34 l-254 -6 -69 65 -68 64
      -120 0 c-118 0 -121 -1 -150 -27z m319 -78 l69 -65 274 0 c220 0 277 -3 293
      -14 16 -12 19 -27 19 -103 l0 -88 -345 -5 c-254 -4 -351 -8 -367 -18 -32 -18
      -44 -46 -102 -237 -95 -309 -89 -297 -120 -293 l-26 3 -3 424 c-2 384 -1 426
      14 443 15 15 33 18 121 18 l104 0 69 -65z m801 -334 c4 -3 -24 -107 -62 -231
      -49 -163 -74 -230 -90 -243 -19 -16 -56 -17 -435 -17 l-413 0 16 53 c8 28 39
      133 69 232 43 144 58 185 80 203 l26 23 402 -7 c220 -3 404 -9 407 -13z"/>
    <path d="M455 626 c-4 -18 -5 -42 -3 -53 1 -10 -6 -32 -16 -49 -28 -41 -33
      -124 -11 -179 33 -89 110 -120 282 -113 129 4 181 27 216 93 29 55 29 149 -1
      197 -12 19 -21 45 -20 59 5 83 -4 92 -70 62 -55 -24 -253 -25 -307 -1 -56 24
      -63 23 -70 -16z m390 -178 c54 -42 39 -140 -27 -174 -43 -23 -171 -30 -237
      -14 -67 16 -101 55 -101 113 1 82 27 95 202 95 121 0 141 -2 163 -20z"/>
    <path d="M551 416 c-19 -22 -10 -80 13 -84 22 -5 36 14 36 49 0 24 -16 49 -31
      49 -4 0 -12 -6 -18 -14z"/>
    <path d="M774 422 c-33 -21 -22 -92 15 -92 30 0 44 63 19 88 -14 14 -19 14
      -34 4z"/>
    <path d="M667 324 c-8 -8 1 -24 14 -24 5 0 9 7 9 15 0 15 -12 20 -23 9z"/>
  </g>
</svg>
